<?xml version="1.0" encoding="UTF-8"?>
<svg version="1.1" xmlns="http://www.w3.org/2000/svg" width="1046" height="1046">
<path d="M0 0 C1.27020996 -0.00701431 2.54041992 -0.01402863 3.84912109 -0.02125549 C7.92289105 -0.03865347 11.9965134 -0.04568922 16.0703125 -0.046875 C16.76456581 -0.04731686 17.45881912 -0.04775871 18.17411041 -0.04821396 C39.00526416 -0.05516632 59.53302251 0.27361249 80.1953125 3.203125 C82.07814941 3.45255859 82.07814941 3.45255859 83.99902344 3.70703125 C152.17140416 12.83499693 217.8998758 35.2526973 277.1953125 70.203125 C278.00049316 70.6760498 278.80567383 71.14897461 279.63525391 71.63623047 C291.50033238 78.64187416 302.96314266 86.22335072 314.1953125 94.203125 C315.29806519 94.98175903 315.29806519 94.98175903 316.4230957 95.77612305 C319.95516658 98.33374631 322.96123685 100.51888336 325.1328125 104.390625 C325.70322266 105.37095703 325.70322266 105.37095703 326.28515625 106.37109375 C328.11152517 110.04734707 328.44456035 113.20769992 328.5703125 117.265625 C328.61929688 118.32910156 328.66828125 119.39257812 328.71875 120.48828125 C327.12190975 131.82108031 318.96644021 139.15072784 311.2199707 146.82543945 C309.99305964 148.05913675 308.76721237 149.29389276 307.54234314 150.52961731 C304.23135144 153.86328882 300.90487709 157.18108693 297.57459283 160.49547219 C294.08039205 163.97695528 290.59847363 167.47068875 287.11454773 170.96244812 C281.26346631 176.82260902 275.40196102 182.67218804 269.53442383 188.51586914 C262.76479748 195.25828777 256.01337132 202.01852927 249.2711156 208.7883094 C243.46696154 214.6152019 237.65305958 220.43223336 231.83099812 226.24123353 C228.36029372 229.70416952 224.89299224 233.17033145 221.43447304 236.64544106 C218.18139664 239.91303179 214.91619531 243.16801426 211.64150429 246.41393852 C210.44646053 247.60240867 209.25558103 248.79508421 208.0693779 249.99237823 C192.34845449 265.84660652 192.34845449 265.84660652 181.0703125 266.015625 C172.41111436 265.64133723 165.54973292 261.35699515 158.1953125 257.203125 C124.44233811 238.48619 87.56200048 226.6705633 49.1953125 222.203125 C48.43532959 222.1088623 47.67534668 222.01459961 46.89233398 221.91748047 C-26.04379267 213.98455026 -103.39698838 235.46924747 -160.9453125 281.08203125 C-162.23409879 282.1195106 -163.52065612 283.15976651 -164.8046875 284.203125 C-165.68543945 284.91831299 -165.68543945 284.91831299 -166.58398438 285.64794922 C-170.38865398 288.76076167 -174.11875065 291.95082778 -177.8046875 295.203125 C-178.33513672 295.67041016 -178.86558594 296.13769531 -179.41210938 296.61914062 C-192.59859422 308.31759477 -204.20097151 321.13634569 -214.8046875 335.203125 C-215.26617187 335.80769531 -215.72765625 336.41226562 -216.203125 337.03515625 C-222.63682843 345.47717042 -228.44436548 354.1147981 -233.72070312 363.32470703 C-234.78591788 365.17059944 -235.87827855 366.99785339 -236.9765625 368.82421875 C-262.23372176 411.44391909 -274.02089049 462.0159279 -274.0546875 511.265625 C-274.05536224 512.1512915 -274.05603699 513.03695801 -274.05673218 513.94946289 C-273.99325285 566.60764558 -259.32552626 618.51203589 -232.23046875 663.7265625 C-228.70914991 669.84304508 -228.66694326 677.71364774 -230.3828125 684.484375 C-235.2412301 695.26122859 -246.24330999 703.8022611 -254.49975586 712.09106445 C-255.64757374 713.24680611 -256.79521779 714.40272041 -257.94270325 715.55879211 C-261.67297674 719.31498775 -265.40843416 723.0660043 -269.14453125 726.81640625 C-270.43858318 728.11582713 -271.73263083 729.41525229 -273.02667427 730.71468163 C-278.40947115 736.11904899 -283.79368389 741.52199916 -289.18161678 746.92124653 C-296.86925593 754.62514665 -304.54825123 762.33743931 -312.21555227 770.06158286 C-317.62956058 775.51434414 -323.05316966 780.95743751 -328.48394686 786.39349717 C-331.71867039 789.63186203 -334.9491319 792.87421897 -338.16935539 796.12700844 C-341.19627162 799.18410559 -344.23497444 802.22898403 -347.28288078 805.26515007 C-348.39413374 806.37618325 -349.50117468 807.49144919 -350.6034584 808.61138153 C-357.55366458 815.66670511 -364.28058147 822.04376399 -374.34375 823.83203125 C-382.62808563 823.65376074 -388.17477492 822.62627041 -394.2734375 816.875 C-449.40189465 758.68385078 -478.90066501 664.3690275 -490.6171875 584.140625 C-490.71664673 583.46156097 -490.81610596 582.78249695 -490.9185791 582.08285522 C-494.24964993 559.01859669 -495.18357457 536.05275711 -495.1171875 512.765625 C-495.11496416 511.38469449 -495.11278769 510.00376391 -495.11065674 508.62283325 C-495.06731408 488.33992392 -494.64966036 468.31986931 -491.8046875 448.203125 C-491.70758484 447.49740356 -491.61048218 446.79168213 -491.51043701 446.0645752 C-478.32756765 350.32081686 -439.79016542 259.62716036 -377.8046875 185.203125 C-377.38606445 184.69813477 -376.96744141 184.19314453 -376.53613281 183.67285156 C-365.90873929 170.87113587 -354.58720632 158.81227755 -342.80322266 147.07128906 C-341.03820206 145.3116902 -339.27867617 143.54672103 -337.51953125 141.78125 C-331.78432921 136.04237622 -326.01868133 130.42865189 -319.8046875 125.203125 C-318.79471754 124.32650536 -317.78555759 123.44895132 -316.77734375 122.5703125 C-243.55184328 59.8617631 -153.0742319 19.06104654 0 0 Z " fill="#5064FE" transform="translate(505.8046875,10.796875)"/>
<path d="M0 0 C68.65674892 37.53901158 148.87619849 44.79500611 223.78271484 23.39941406 C247.62010431 16.27243618 270.39653995 5.67011491 291.88671875 -6.80859375 C297.46514855 -9.95127252 303.04165075 -10.37520842 309.326684 -9.08479691 C318.65075773 -6.28443437 324.40282324 -0.129395 331.02709961 6.60644531 C332.29168457 7.86644931 333.55777992 9.12493895 334.82525635 10.3820343 C338.2438463 13.78162046 341.64027197 17.20257054 345.03245997 20.62847614 C348.59457584 24.21960314 352.17506492 27.79232876 355.75306702 31.36761475 C361.75576032 37.37129621 367.74461294 43.3885085 373.72485352 49.41455078 C380.63009041 56.37243557 387.55444809 63.31081398 394.48990434 70.23856854 C401.17532987 76.91706963 407.8492836 83.60691264 414.51733589 90.30275726 C417.34926831 93.14636695 420.18472328 95.98639333 423.02302361 98.82364655 C426.36576343 102.16651258 429.69818168 105.51934771 433.02301025 108.88002586 C434.24181272 110.10887669 435.46397765 111.33440342 436.68979073 112.55626106 C450.19292225 126.02533153 450.19292225 126.02533153 451.53125 135 C451.45248616 143.66402233 450.7333885 149.43093673 444.7578125 155.84375 C441.8410543 158.58699 438.79411479 161.02268505 435.5625 163.375 C434.92199707 163.84172119 434.28149414 164.30844238 433.62158203 164.78930664 C417.81749138 176.13283471 401.03278944 186.06930479 384 195.4375 C382.75065674 196.12706787 382.75065674 196.12706787 381.47607422 196.83056641 C314.22353721 233.69327335 234.40647323 256.354209 157.328125 256.640625 C156.05946091 256.64768463 154.79079681 256.65474426 153.48368835 256.66201782 C149.40575086 256.67955305 145.32796734 256.68671041 141.25 256.6875 C140.20671476 256.68794186 140.20671476 256.68794186 139.14235306 256.68839264 C117.94885418 256.68984288 97.0244806 256.41084776 76 253.4375 C75.29427856 253.34039734 74.58855713 253.24329468 73.8614502 253.14324951 C40.45706124 248.54383015 7.98296996 241.1621887 -24 230.4375 C-25.05413086 230.08606934 -26.10826172 229.73463867 -27.19433594 229.37255859 C-68.31862598 215.51167151 -107.33455384 196.02463529 -143.4375 172 C-144.00467743 171.62299957 -144.57185486 171.24599915 -145.15621948 170.85757446 C-169.23967906 154.79651856 -169.23967906 154.79651856 -172 143.4375 C-172.96130843 136.25664184 -171.78350173 130.58750967 -168 124.4375 C-161.64451048 116.66926399 -154.37182618 109.64955799 -147.2890625 102.54956055 C-146.13961277 101.39382841 -144.99034647 100.23791382 -143.84124756 99.08183289 C-140.10601018 95.3257899 -136.36565228 91.57486773 -132.625 87.82421875 C-131.32966032 86.52482477 -130.0343521 85.22539944 -128.73907471 83.92594337 C-122.65851412 77.82639462 -116.57558864 71.72921664 -110.48971367 65.63497037 C-103.48868248 58.62414557 -96.49603386 51.60509525 -89.51028633 44.57904214 C-84.08945704 39.12802061 -78.66094321 33.68472868 -73.22665215 28.24712783 C-69.98936141 25.00749331 -66.75542132 21.76467722 -63.52960205 18.51361656 C-60.4980593 15.4587289 -57.45705557 12.41358204 -54.40869904 9.37547493 C-53.29629632 8.26356586 -52.18726805 7.14826819 -51.08202362 6.02924347 C-33.29283505 -11.96915967 -21.52920099 -12.0275763 0 0 Z " fill="#1F0155" transform="translate(383,778.5625)"/>
<path d="M0 0 C0.92425781 0.70511719 1.84851563 1.41023438 2.80078125 2.13671875 C26.19242493 20.56549602 43.03101174 45.08453713 52.25 73.375 C52.48420654 74.08043945 52.71841309 74.78587891 52.9597168 75.51269531 C57.20138765 89.20649395 58.56001279 102.99301757 58.4375 117.25 C58.43293793 118.38754227 58.43293793 118.38754227 58.42828369 119.54806519 C58.35445664 132.05617256 57.35839207 143.89875156 54 156 C53.80696289 156.73814941 53.61392578 157.47629883 53.41503906 158.23681641 C48.50901371 176.55183881 39.24344461 194.53421586 27 209 C26.08852209 210.13305265 25.17844264 211.26723126 24.26953125 212.40234375 C1.31018089 240.61944308 -33.31578721 259.53481215 -69.4934082 263.80371094 C-75.44048295 264.26942128 -81.41271661 264.24494526 -87.375 264.25 C-88.44646774 264.25101212 -88.44646774 264.25101212 -89.5395813 264.25204468 C-100.6084322 264.23544551 -111.22818515 263.70293008 -122 261 C-122.68980957 260.83371094 -123.37961914 260.66742187 -124.09033203 260.49609375 C-145.8943283 255.10376126 -166.02481778 244.71568697 -183 230 C-184.22589844 228.95585938 -184.22589844 228.95585938 -185.4765625 227.890625 C-214.81358719 202.27749509 -231.98644722 166.70325631 -235 128 C-237.05130469 88.63316622 -225.00779021 50.80668092 -199 21 C-198.39414062 20.27296875 -197.78828125 19.5459375 -197.1640625 18.796875 C-193.14869945 14.03658034 -188.78842904 9.97132096 -184 6 C-183.30777344 5.39671875 -182.61554688 4.7934375 -181.90234375 4.171875 C-131.35901991 -38.48218217 -52.34528378 -40.97550423 0 0 Z " fill="#1F0155" transform="translate(611,405)"/>
</svg>
