<?xml version="1.0" encoding="utf-8"?>
<!-- Generator: Adobe Illustrator 26.5.0, SVG Export Plug-In . SVG Version: 6.00 Build 0)  -->
<svg version="1.1" id="Layer_1" xmlns="http://www.w3.org/2000/svg" xmlns:xlink="http://www.w3.org/1999/xlink" x="0px" y="0px"
	 viewBox="0 0 512 512" style="enable-background:new 0 0 512 512;" xml:space="preserve">
<style type="text/css">
	.st0{fill:#0BA25E;}
	.st1{fill:#089156;}
	.st2{fill:#10985B;}
	.st3{fill:#F9C941;}
	.st4{fill:#E8B835;}
	.st5{fill:#296AD9;}
	.st6{fill:#2A71E9;}
	.st7{fill:#286EE6;}
</style>
<g id="XMLID_24_">
	<polygon id="XMLID_26_" class="st0" points="166.45,34.42 166.88,34.42 166.88,34.99 166.31,34.99 	"/>
	<path id="XMLID_30_" class="st0" d="M164.74,37.69c0.43-0.57,1.14-1.71,1.57-2.28l0.71-0.14c0.57,6.4,2.42,12.52,3.84,18.64
		c5.98,26.89,12.1,53.79,18.5,80.54c4.13,18.36,8.82,36.71,12.66,55.07c3.27,11.38,5.12,23.2,8.25,34.58
		c2.13,10.67,5.27,21.06,6.97,31.73c-0.71,1.14-1.42,2.42-2.13,3.56c-0.14,0.28-0.57,0.85-0.71,1.14l-0.28,0.43l-0.14,0.28
		c-0.43,0.71-1.14,2.13-1.57,2.85c0,0.14-0.28,0.43-0.28,0.57l-0.71,1.28c-0.14,0.14-0.28,0.43-0.28,0.57l-0.85,1.42l-0.14,0.28
		l-1,1.85c-0.14,0.14-0.28,0.43-0.43,0.57c-0.14,0.14-0.28,0.57-0.43,0.71l-1,1.71c-0.14,0.14-0.28,0.43-0.28,0.57l-0.57,1
		c-0.14,0.14-0.28,0.57-0.43,0.71c-0.43,0.71-1.14,2.13-1.57,2.85c0,0.14-0.28,0.43-0.28,0.57l-0.57,1
		c-0.14,0.14-0.28,0.57-0.43,0.71c-0.43,0.71-1.14,1.99-1.57,2.56c-0.14,0.14-0.28,0.43-0.28,0.57l-0.71,1.42l-0.28,0.43l-0.71,1.42
		c-0.14,0.14-0.28,0.43-0.28,0.57c-0.43,0.71-1.14,1.99-1.57,2.7c-0.14,0.14-0.28,0.43-0.43,0.57l-0.71,1.28l-0.28,0.43l-0.85,1.42
		c0,0.14-0.28,0.43-0.28,0.57c-0.43,0.71-1.28,2.13-1.71,2.85c0,0.14-0.28,0.43-0.28,0.57l-0.57,1c-0.14,0.14-0.28,0.57-0.43,0.71
		c-0.43,0.71-1.14,1.99-1.57,2.7l-0.28,0.43l-0.85,1.42l-0.28,0.43l-0.85,1.42l-0.28,0.43c-0.43,0.71-1.14,1.99-1.57,2.56
		c-0.14,0.14-0.28,0.57-0.43,0.71l-0.57,1.14c-0.14,0.14-0.28,0.43-0.28,0.57l-1,1.85c-0.14,0.14-0.28,0.43-0.28,0.57
		c-0.14,0.14-0.28,0.43-0.28,0.57c-1.71,2.85-3.27,5.83-5.12,8.54c-10.67,17.36-20.49,35.29-30.88,52.94
		c-16.79,29.03-33.58,58.06-50.37,87.09c-2.56,4.55-5.41,8.82-7.54,13.52c-0.14,0.14-0.28,0.43-0.43,0.71
		c-3.98-5.83-7.12-12.24-10.81-18.21c-16.79-29.03-33.58-58.06-50.37-87.23c-9.39-16.36-19.07-32.44-28.03-48.95
		c35.86-62.04,71.72-124.09,107.58-186.13l0.14-0.28l1-1.71l0.14-0.28l1-1.71c0.14-0.14,0.28-0.43,0.43-0.57
		c0.14-0.14,0.28-0.57,0.43-0.71l1-1.71l0.28-0.43l0.71-1.14c0.14-0.14,0.43-0.57,0.57-0.71c0.43-0.57,1.14-1.57,1.42-2.13
		c0-0.14,0.14-0.57,0.14-0.71l0.85-1.71l0.14-0.28l1-1.71c0.14-0.14,0.28-0.57,0.43-0.71c0.14-0.14,0.28-0.57,0.43-0.71l0.85-1.42
		c0.14-0.14,0.28-0.43,0.43-0.57l0.71-1.28c0.14-0.14,0.28-0.43,0.28-0.57c0.43-0.71,1.14-1.99,1.57-2.7
		c0.14-0.14,0.28-0.43,0.28-0.57l0.71-1.28l0.28-0.43l1-1.71c0.14-0.14,0.43-0.57,0.57-0.85l0.71-1c0.14-0.14,0.43-0.57,0.57-0.71
		c0.14-0.14,0.43-0.57,0.57-0.85l0.57-1c0.14-0.43,0.57-1.14,0.71-1.57l0.57-0.71c0.14-0.14,0.28-0.43,0.43-0.57
		c0.43-0.28,1.14-1,1.42-1.28v-1.14c0-0.14,0.14-0.43,0.28-0.57l0.85-1.71l0.28-0.43l0.71-1.28c0.14-0.14,0.43-0.57,0.57-0.85
		c0.28-0.57,1-1.71,1.42-2.28c0.14-0.14,0.28-0.57,0.43-0.85l0.57-1.14c0.14-0.28,0.57-0.85,0.71-1.28l0.71-1
		c0.14-0.14,0.43-0.57,0.57-0.71c0.14-0.14,0.43-0.57,0.43-0.85l0.43-1c0.14-0.28,0.28-0.71,0.43-1l0.85-1.71
		c0.14-0.14,0.43-0.57,0.57-0.85l0.71-1c0.14-0.14,0.43-0.57,0.57-0.71c0.14-0.14,0.43-0.57,0.57-0.85l0.57-1
		c0.14-0.28,0.43-0.85,0.57-1.14l0.71-1.14c0.14-0.14,0.43-0.57,0.43-0.71c0.43-0.57,1.14-1.71,1.42-2.28
		c0-0.14,0.14-0.57,0.14-0.71l0.85-1.71l0.14-0.28l1-1.71c0.14-0.14,0.28-0.57,0.43-0.71s0.28-0.57,0.43-0.71l1-1.71l0.14-0.28
		l1-1.57l0.14-0.28l1-1.71c0.14-0.14,0.28-0.43,0.43-0.57c0.14-0.14,0.28-0.57,0.43-0.71l1-1.71l0.28-0.43l0.85-1.28
		c0.14-0.14,0.43-0.57,0.57-0.71c0.43-0.57,1.14-1.71,1.42-2.13c0-0.14,0.14-0.57,0.14-0.71l0.85-1.57c0-0.14,0.28-0.43,0.28-0.57
		l0.71-1.14c0.14-0.14,0.43-0.57,0.57-0.71c0.28-0.57,1-1.71,1.42-2.28c0-0.14,0.14-0.43,0.14-0.71l0.85-1.71l0.14-0.28l1-1.71
		c0.14-0.14,0.28-0.43,0.28-0.57c0.14-0.14,0.28-0.43,0.43-0.71l1-1.85l0.14-0.28l1-1.57L164.74,37.69z"/>
	<path id="XMLID_31_" class="st1" d="M167.02,35.42c2.13,2.7,3.7,5.83,5.41,8.96c27.89,48.24,55.64,96.34,83.53,144.58
		c-12.81,22.34-25.9,44.82-38.71,67.17c-1.71-10.67-4.98-21.06-6.97-31.73c-3.13-11.38-4.98-23.2-8.25-34.58
		c-3.84-18.5-8.4-36.71-12.66-55.07c-6.4-26.75-12.38-53.65-18.5-80.54C169.3,47.8,167.45,41.68,167.02,35.42z"/>
	<path id="XMLID_32_" class="st2" d="M347.03,37.55c0.14,0.14,0.28,0.43,0.28,0.57C347.32,37.98,347.17,37.69,347.03,37.55z"/>
	<path id="XMLID_33_" class="st2" d="M355.14,51.78l0.14,0.28L355.14,51.78z"/>
	<path id="XMLID_34_" class="st2" d="M370.23,77.82l0.14,0.28L370.23,77.82z"/>
	<path id="XMLID_35_" class="st2" d="M373.07,82.66c0.14,0.14,0.28,0.43,0.28,0.57C373.36,83.09,373.21,82.8,373.07,82.66z"/>
	<path id="XMLID_36_" class="st2" d="M377.2,89.78l0.14,0.28L377.2,89.78z"/>
	<path id="XMLID_37_" class="st2" d="M381.18,96.75c0.14,0.14,0.28,0.43,0.28,0.57C381.33,97.17,381.18,96.89,381.18,96.75z"/>
	<path id="XMLID_38_" class="st2" d="M385.17,103.72c0.14,0.14,0.28,0.43,0.28,0.57C385.45,104.15,385.31,103.86,385.17,103.72z"/>
	<path id="XMLID_39_" class="st3" d="M509.82,319.45l-0.14-0.28l-1-1.71c-0.14-0.14-0.28-0.57-0.43-0.71
		c-0.14-0.14-0.28-0.57-0.43-0.71l-1-1.71l-0.14-0.28l-1-1.71l-0.14-0.28l-1-1.71c-0.14-0.14-0.28-0.43-0.43-0.57
		c-0.14-0.14-0.28-0.43-0.43-0.71l-1-1.71c-0.14-0.14-0.43-0.57-0.43-0.71l-0.71-1c-0.14-0.14-0.43-0.57-0.57-0.71
		c-0.14-0.14-0.28-0.57-0.43-0.85l-0.43-1c-0.14-0.14-0.28-0.57-0.43-0.85c-0.71-1.28-1.42-2.56-2.13-3.7
		c-0.14-0.14-0.28-0.43-0.43-0.71c-0.14-0.14-0.28-0.57-0.43-0.71l-0.85-1.57l-0.28-0.43l-0.85-1.57l-0.14-0.28l-1-1.71
		c-0.14-0.14-0.28-0.43-0.43-0.57c-0.14-0.14-0.28-0.43-0.43-0.71l-1-1.71c-0.14-0.14-0.28-0.43-0.43-0.57l-0.57-1
		c-0.14-0.14-0.28-0.57-0.43-0.71c-0.43-0.71-1.28-1.99-1.71-2.56l-0.14-0.14l-0.14-0.14l-0.28-0.57c-0.14-0.43-0.57-1.42-0.85-1.85
		l-0.71-1c-0.14-0.14-0.43-0.57-0.57-0.85c-0.14-0.28-0.57-1-0.85-1.28l-0.57-0.85l-0.28-0.28l-0.14-0.28l-0.28-0.57
		c-0.14-0.28-0.43-1-0.57-1.42l-1-1.85c-0.14-0.14-0.28-0.43-0.43-0.71c-0.14-0.14-0.28-0.57-0.43-0.71l-1-1.71l-0.14-0.28l-1-1.71
		l-0.14-0.28l-1-1.71c-0.14-0.14-0.28-0.43-0.43-0.57s-0.28-0.57-0.43-0.71l-1-1.71l-0.14-0.43l-0.85-1.42
		c-0.14-0.14-0.28-0.43-0.28-0.57c-0.43-0.71-1.14-1.99-1.57-2.56c-0.14-0.14-0.28-0.43-0.28-0.57
		c-17.22-30.31-34.86-60.48-52.22-90.65c-11.95-20.63-23.91-41.41-35.86-62.04c-0.14-0.14-0.28-0.43-0.28-0.57
		c-1.28-2.13-2.42-4.27-3.7-6.55c-0.14-0.14-0.28-0.43-0.28-0.57c-1.28-2.13-2.56-4.41-3.84-6.55l-0.14-0.28
		c-1.28-2.13-2.56-4.41-3.84-6.55c-0.14-0.14-0.28-0.43-0.28-0.57c-0.85-1.57-1.85-3.13-2.7-4.55l-0.14-0.28
		c-4.84-8.68-9.82-17.22-14.8-25.76l-0.14-0.28c-2.56-4.55-5.27-9.11-7.83-13.66c-0.14-0.14-0.28-0.43-0.28-0.57
		c-0.57-1-1.14-1.99-1.71-2.99c-26.89-0.43-53.93,0-80.83-0.14c-32.59,0-65.17-0.14-97.62,0v0.43v0.43c2.13,2.7,3.7,5.83,5.41,8.96
		c27.89,48.24,55.64,96.34,83.53,144.58c0.57,1,1.28,2.13,1.85,3.13c0.14,0.14,0.28,0.43,0.28,0.57c0.43,0.71,1.14,1.99,1.57,2.7
		l0.28,0.43l0.85,1.42l0.14,0.28l1,1.71c0.14,0.14,0.28,0.43,0.28,0.57c0.14,0.14,0.28,0.43,0.43,0.71l1,1.57l0.14,0.43
		c0.71,1.14,1.28,2.28,1.99,3.42c0.14,0.14,0.28,0.43,0.28,0.57c0.43,0.71,1.14,1.99,1.57,2.7c0.14,0.14,0.28,0.43,0.28,0.57
		l0.85,1.42c0.14,0.28,0.57,1,0.85,1.28l0.28,0.43l0.14,0.28c0.43,0.85,1.28,2.42,1.71,3.13c0.14,0.28,0.57,0.85,0.71,1.14
		l0.28,0.43l0.14,0.28c0.85,1.71,1.85,3.42,2.85,5.12c0.14,0.28,0.57,0.85,0.71,1.14l0.28,0.43l0.14,0.28
		c0.43,0.71,1.14,2.13,1.57,2.85c0.14,0.14,0.28,0.43,0.28,0.57l0.71,1.14c0.14,0.14,0.28,0.57,0.43,0.71l0.85,1.42
		c0.14,0.14,0.28,0.57,0.43,0.71c0.14,0.14,0.28,0.43,0.43,0.57l1,1.71l0.14,0.28l1,1.71c0.14,0.14,0.28,0.43,0.28,0.57l0.57,1
		c0.14,0.14,0.28,0.57,0.43,0.71c0.43,0.71,1.28,2.13,1.71,2.99c0.14,0.28,0.57,0.85,0.71,1.14l0.28,0.43l0.14,0.28
		c0.43,0.71,1.28,2.13,1.85,2.85v0.14v0.14c0.57,1.28,1.28,2.56,1.99,3.84c0.14,0.14,0.28,0.43,0.28,0.57
		c0.14,0.14,0.28,0.57,0.43,0.71l1,1.57l0.14,0.43l0.71,1.14c11.53,4.27,23.48,7.26,35.15,11.1c12.52,3.7,25.05,7.68,37.57,11.38
		c22.77,7.26,45.82,14.09,68.73,21.35c25.19,6.97,49.81,15.51,74.85,22.77v-0.85L509.82,319.45z"/>
	<polygon id="XMLID_41_" class="st3" points="511.39,322.44 510.82,322.44 511.1,323.29 511.67,323.15 	"/>
	<path id="XMLID_42_" class="st4" d="M435.97,299.67c-22.77-7.4-45.82-14.09-68.73-21.35c-12.52-3.56-25.05-7.68-37.57-11.38
		c-11.67-3.84-23.62-6.83-35.15-11.1c12.95,22.63,26.18,44.97,38.85,67.59h0.71c30.88,0.14,61.62,0,92.5,0
		c28.18-0.14,56.35,0.43,84.53-0.28l-0.28-0.85C485.77,315.18,461.16,306.64,435.97,299.67z"/>
	<path id="XMLID_43_" class="st4" d="M510.96,321.44v0.85h0.57C511.25,322.15,510.96,321.73,510.96,321.44z"/>
	<path id="XMLID_47_" class="st5" d="M147.38,376.23c10.39-17.65,20.21-35.58,30.88-52.94c51.8,0.14,103.45-0.28,155.25,0.14h0.71
		c-26.18,0.85-52.37-0.28-78.55,0.43c-4.98,3.27-8.25,8.4-13.09,11.95c-4.41,3.27-7.68,7.68-11.95,11.24
		c-5.98,4.41-10.39,10.39-16.36,14.8c-6.97,7.4-15.08,13.66-22.06,20.92c-5.27,3.98-9.68,9.11-14.66,13.52
		c-5.41,3.98-9.53,9.25-14.66,13.52c-0.14,0.14-0.43,0.28-0.57,0.43c-0.28,0.14-0.85,0.71-1.14,0.85c-0.14,0.14-0.43,0.28-0.57,0.43
		c-3.98,3.13-6.97,7.12-10.96,10.25c-0.14,0.14-0.43,0.28-0.57,0.43c-0.14,0.14-0.43,0.28-0.57,0.43
		c-5.69,4.7-10.25,10.67-16.22,14.94c-5.98,5.98-12.81,11.1-18.5,17.36c-8.4,6.97-15.8,15.23-24.48,21.77
		c2.13-4.7,4.98-9.11,7.54-13.52C113.8,434.29,130.59,405.26,147.38,376.23z"/>
	<path id="XMLID_48_" class="st5" d="M89.04,477.55c0.14-0.14,0.28-0.43,0.43-0.71v0.71H89.04z"/>
	<path id="XMLID_49_" class="st6" d="M334.08,323.43c30.88,0.14,61.62,0,92.5,0c28.18-0.14,56.35,0.43,84.53-0.28h0.57l0.43,0.14
		v0.14c-29.74,51.37-59.34,102.88-89.08,154.25c-111.14,0-222.42,0.14-333.55-0.14v-0.71c8.68-6.69,16.08-14.94,24.48-21.77
		c5.69-6.26,12.52-11.38,18.5-17.36c5.98-4.41,10.53-10.25,16.22-14.94c0.14-0.14,0.43-0.28,0.57-0.43
		c0.14-0.14,0.43-0.28,0.57-0.43c3.84-3.13,6.97-7.26,10.96-10.25c0.14-0.14,0.43-0.28,0.57-0.43c0.28-0.14,0.85-0.71,1.14-0.85
		c0.14-0.14,0.43-0.28,0.57-0.43c4.98-4.27,9.25-9.68,14.66-13.52c4.98-4.41,9.39-9.39,14.66-13.52
		c6.97-7.4,15.08-13.52,22.06-20.92c5.98-4.27,10.39-10.39,16.36-14.8c4.27-3.42,7.54-7.97,11.95-11.24
		c4.84-3.56,8.11-8.68,13.09-11.95C281.71,323.29,307.9,324.29,334.08,323.43z"/>
	<path id="XMLID_50_" class="st7" d="M162.32,410.24c0.14-0.14,0.43-0.28,0.57-0.43C162.75,409.95,162.47,410.1,162.32,410.24z"/>
	<path id="XMLID_55_" class="st7" d="M161.19,411.09c0.28-0.14,0.85-0.71,1.14-0.85C162.04,410.52,161.47,410.95,161.19,411.09z"/>
	<path id="XMLID_56_" class="st7" d="M160.76,411.52c0.14-0.14,0.43-0.28,0.57-0.43C161.04,411.23,160.9,411.38,160.76,411.52z"/>
	<path id="XMLID_57_" class="st7" d="M149.37,422.33c0.14-0.14,0.43-0.28,0.57-0.43C149.66,421.91,149.37,422.19,149.37,422.33z"/>
	<path id="XMLID_58_" class="st7" d="M148.8,422.62c0.14-0.14,0.43-0.28,0.57-0.43C149.23,422.33,148.95,422.62,148.8,422.62z"/>
</g>
</svg>
