<?xml version="1.0" encoding="utf-8"?>
<!-- Generator: Adobe Illustrator 26.5.0, SVG Export Plug-In . SVG Version: 6.00 Build 0)  -->
<svg version="1.1" id="Layer_1" xmlns="http://www.w3.org/2000/svg" xmlns:xlink="http://www.w3.org/1999/xlink" x="0px" y="0px"
	 viewBox="0 0 512 512" style="enable-background:new 0 0 512 512;" xml:space="preserve">
<style type="text/css">
	.st0{fill:#FFFFFF;}
	.st1{fill:url(#XMLID_00000090276388235766884990000011748039791279957924_);}
	
		.st2{clip-path:url(#SVGID_00000102502561542659894220000014418530342712958340_);fill:url(#XMLID_00000173840717249429392730000009704790372491539589_);}
	.st3{fill:#231F20;}
</style>
<g id="XMLID_23_">
	<path id="XMLID_25_" d="M412.85-0.05H99.11c-1.26,0-2.53,0-3.79,0c-1.12,0-2.1,0-3.23,0c-2.25,0-4.63,0.14-6.88,0.56
		c-2.24,0.42-4.49,1.12-6.59,2.1C76.52,3.74,74.7,5,73.01,6.68c-1.68,1.68-3.09,3.51-4.07,5.61c-1.12,2.1-1.82,4.21-2.1,6.59
		c-0.42,2.24-0.56,4.63-0.56,6.88c0,1.12,0,2.1,0,3.23c0,1.26,0,2.53,0,3.79v446.19c0,1.26,0,2.53,0,3.79c0,1.12,0,2.1,0,3.23
		c0,2.39,0.14,4.63,0.56,6.88c0.42,2.39,1.12,4.49,2.1,6.59c0.98,2.1,2.39,3.93,4.07,5.61c1.68,1.68,3.51,3.09,5.61,4.07
		c2.1,1.12,4.21,1.82,6.59,2.25c2.25,0.42,4.63,0.56,6.88,0.56c1.12,0,2.1,0,3.23,0c1.26,0,2.53,0,3.79,0h313.74
		c1.26,0,2.53,0,3.79,0c0.98,0,2.1,0,3.23,0c2.24,0,4.63-0.14,6.88-0.56c2.25-0.42,4.49-1.12,6.59-2.25
		c2.1-0.98,3.93-2.39,5.61-4.07c1.68-1.68,3.09-3.51,4.07-5.61c1.12-2.1,1.68-4.21,2.1-6.59c0.42-2.24,0.56-4.63,0.7-6.88
		c0-1.12,0-2.1,0-3.23c0-1.26,0-2.53,0-3.79V32.92c0-1.26,0-2.53,0-3.79c0-1.12,0-2.1,0-3.23c-0.14-2.39-0.28-4.63-0.7-6.88
		c-0.42-2.39-1.12-4.49-2.1-6.59c-1.12-2.1-2.39-3.93-4.07-5.61c-1.68-1.68-3.51-2.95-5.61-4.07c-2.1-1.12-4.35-1.82-6.59-2.1
		c-2.24-0.42-4.63-0.56-6.88-0.56c-1.12,0-2.1,0-3.23,0C415.37-0.05,414.11-0.05,412.85-0.05z"/>
	<path id="XMLID_26_" class="st0" d="M99.11,507.88c-1.26,0-2.53,0-3.79,0c-0.98,0-2.1,0-3.09,0c-1.82,0-4.07-0.14-6.31-0.56
		c-1.96-0.42-3.79-0.98-5.33-1.82c-1.68-0.84-3.23-1.96-4.49-3.23c-1.4-1.26-2.53-2.81-3.37-4.49s-1.4-3.37-1.82-5.33
		c-0.42-2.24-0.56-4.49-0.56-6.31c0-0.7,0-1.4,0-2.1v-0.98V29.42v-0.98c0-0.7,0-1.4,0-2.1c0-1.82,0.14-4.07,0.56-6.31
		c0.28-1.96,0.98-3.79,1.82-5.47c0.84-1.68,1.96-3.23,3.23-4.49c1.4-1.4,2.81-2.53,4.49-3.37s3.37-1.4,5.33-1.82
		c2.25-0.42,4.49-0.56,6.31-0.56h0.7c0.84,0,1.54,0,2.39,0c1.26,0,2.53,0,3.79,0h313.74c1.26,0,2.53,0,3.79,0c0.84,0,1.68,0,2.39,0
		h0.7c1.68,0,4.07,0.14,6.17,0.56c1.96,0.28,3.79,0.98,5.47,1.82c1.68,0.84,3.23,1.96,4.49,3.23c1.26,1.26,2.39,2.81,3.37,4.63
		c0.84,1.68,1.4,3.37,1.68,5.33c0.42,2.1,0.56,4.35,0.56,6.31c0,0.98,0,1.96,0,3.09c0,1.26,0,2.53,0,3.79v446.19
		c0,1.26,0,2.53,0,3.65c0,1.12,0,2.1,0,3.23c0,1.96-0.14,4.21-0.56,6.17c-0.28,1.96-0.98,3.79-1.82,5.47
		c-0.84,1.68-1.96,3.23-3.23,4.49c-1.4,1.4-2.81,2.53-4.49,3.37s-3.37,1.4-5.47,1.82c-2.1,0.42-4.35,0.42-6.31,0.56
		c-0.98,0-2.1,0-3.09,0c-1.26,0-2.53,0-3.79,0H99.11V507.88z"/>
	
		<linearGradient id="XMLID_00000039111193507078845300000001694511327107485345_" gradientUnits="userSpaceOnUse" x1="5.9497" y1="505.9976" x2="7.3529" y2="505.9976" gradientTransform="matrix(0 -159.29 159.29 0 -80344.6562 1232.5112)">
		<stop  offset="0" style="stop-color:#1A7CB4"/>
		<stop  offset="1" style="stop-color:#17E2FE"/>
	</linearGradient>
	<path id="XMLID_27_" style="fill:url(#XMLID_00000039111193507078845300000001694511327107485345_);" d="M357.99,284.78H153.41
		c-9.26,0-16.84-7.58-16.84-16.84V78.1c0-9.26,7.58-16.84,16.84-16.84h204.58c9.26,0,16.84,7.58,16.84,16.84v189.84
		C374.82,277.21,367.25,284.78,357.99,284.78z"/>
	<path id="XMLID_28_" d="M240.41,450.35h-13.47l-2.53-47.29c-1.26-21.75-1.82-37.18-1.82-46.16h-0.42
		c-3.65,12.91-8,26.38-13.05,40.69l-18.66,52.06h-10.38l-17.12-51.07c-5.19-15.43-9.26-29.33-12.07-41.67h-0.28
		c-0.42,15.57-1.12,31.29-2.1,47.29l-2.81,46.16H132.5l7.44-107.62h17.4l17.82,51.92c4.21,11.93,7.72,23.99,10.66,36.2h0.42
		c2.95-11.93,6.74-23.99,11.22-36.2l18.66-51.92h17.54L240.41,450.35z"/>
	<path id="XMLID_31_" d="M313.93,450.21H301.3l-1.26-9.54h-0.28c-5.33,7.44-13.05,11.23-23.15,11.23c-7.3,0-13.05-2.24-17.26-6.73
		c-3.93-4.21-5.89-9.26-5.89-15.29c0-9.4,3.93-16.56,11.79-21.47c7.86-4.91,19.08-7.44,33.67-7.3v-1.54
		c0-11.93-5.75-17.82-17.26-17.82c-7.44,0-14.03,1.82-19.64,5.61l-3.23-9.26c6.88-4.35,15.15-6.59,25.12-6.59
		c19.22,0,28.76,10.38,28.76,31.29v29.18C312.67,439.41,313.09,445.44,313.93,450.21z M299.06,424.25v-13.61
		c-21.19-0.42-31.71,5.33-31.71,17.4c0,4.35,1.26,7.72,3.65,9.96c2.39,2.24,5.47,3.37,9.26,3.37c4.63,0,8.56-1.26,11.93-3.93
		c2.95-2.39,5.05-5.33,6.17-8.84C298.92,427.34,299.06,425.94,299.06,424.25z"/>
	<path id="XMLID_32_" d="M386.05,375.29l-3.09,10.66c-4.49-2.39-9.68-3.65-15.86-3.65c-8.42,0-15.01,2.95-19.78,8.84
		c-4.63,5.33-6.88,12.21-6.88,20.63c0,8.7,2.39,15.71,7.3,21.05c4.91,5.33,11.23,7.86,18.94,7.86c5.47,0,11.08-1.26,16.56-3.65
		l2.24,10.52c-5.89,2.81-13.05,4.21-21.33,4.21c-11.51,0-20.63-3.51-27.5-10.66s-10.24-16.7-10.24-28.62
		c0-12.07,3.79-21.89,11.23-29.47c7.44-7.72,17.26-11.51,29.47-11.51C374.96,371.22,381.14,372.62,386.05,375.29z"/>
	<g id="XMLID_35_">
		<g>
			<defs>
				<path id="SVGID_1_" d="M358.97,284.78H152.99c-9.26,0-16.84-7.58-16.84-16.84V78.1c0-9.26,7.58-16.84,16.84-16.84h205.98
					c9.26,0,16.84,7.58,16.84,16.84v189.84C375.81,277.21,368.23,284.78,358.97,284.78z"/>
			</defs>
			<clipPath id="SVGID_00000088842409793642096500000013126739655727302838_">
				<use xlink:href="#SVGID_1_"  style="overflow:visible;"/>
			</clipPath>
			
				<linearGradient id="XMLID_00000016768242074750854590000004484918749978664583_" gradientUnits="userSpaceOnUse" x1="5.933" y1="506.0927" x2="7.3362" y2="506.0927" gradientTransform="matrix(0 -190.1608 190.1608 0 -95920.3359 1429.804)">
				<stop  offset="0" style="stop-color:#D8E3EF"/>
				<stop  offset="1" style="stop-color:#F4F4F5"/>
			</linearGradient>
			
				<path id="XMLID_36_" style="clip-path:url(#SVGID_00000088842409793642096500000013126739655727302838_);fill:url(#XMLID_00000016768242074750854590000004484918749978664583_);" d="
				M272.4,34.75c0,0-20.63,26.24-31.43,97.38c-8.28,54.86-8.7,58.65,3.23,58.65c12.07,0,26.52-2.1,27.08,2.25
				c0.56,4.35,1.12,65.25,9.4,93.45c8.28,28.2,99.06,8.28,99.06,8.28l22.59-129.51L386.61,54.39L272.4,34.75z"/>
		</g>
	</g>
	<path id="XMLID_33_" class="st3" d="M202.1,143.21c-2.53,0-4.49-1.96-4.49-4.49v-14.03c0-2.53,1.96-4.49,4.49-4.49
		c2.53,0,4.49,1.96,4.49,4.49v14.03C206.59,141.24,204.63,143.21,202.1,143.21z"/>
	<path id="XMLID_37_" class="st3" d="M308.32,143.21c-2.53,0-4.49-1.96-4.49-4.49v-14.03c0-2.53,1.96-4.49,4.49-4.49
		c2.53,0,4.49,1.96,4.49,4.49v14.03C312.81,141.24,310.84,143.21,308.32,143.21z"/>
	<path id="XMLID_38_" class="st3" d="M255.98,240.02c-29.33,0-53.74-10.38-72.68-30.73c-1.4-1.54-1.4-4.07,0.14-5.47
		c1.54-1.4,4.07-1.4,5.47,0.14c17.4,18.66,39.99,28.2,66.93,28.2c26.52,0,48.97-9.4,66.79-27.92c1.54-1.54,3.93-1.68,5.47-0.14
		c1.54,1.54,1.68,3.93,0.14,5.47C309.16,229.78,284.74,240.02,255.98,240.02z"/>
</g>
</svg>
