<?xml version="1.0" encoding="utf-8"?>
<!-- Generator: Adobe Illustrator 27.2.0, SVG Export Plug-In . SVG Version: 6.00 Build 0)  -->
<svg version="1.1" id="Layer_1" xmlns="http://www.w3.org/2000/svg" xmlns:xlink="http://www.w3.org/1999/xlink" x="0px" y="0px"
	 viewBox="0 0 512 512" style="enable-background:new 0 0 512 512;" xml:space="preserve">
<style type="text/css">
	.st0{fill:#0B0153;}
	.st1{fill:#FFCA00;}
	.st2{fill:#E70488;}
</style>
<g>
	<path class="st0" d="M174.73,279.06c-7.05,0-14.22-2.92-18.72-8.63v30.88H141.9v-76.22h12.76l0.49,8.38
		c4.38-6.44,12.15-9.85,19.57-9.85c14.22,0,24.7,11.92,24.7,27.72S188.95,279.06,174.73,279.06z M170.36,234.08
		c-8.27,0-14.95,6.44-14.95,17.26c0,10.82,6.68,17.28,14.95,17.28s14.95-6.44,14.95-17.26
		C185.31,240.54,178.63,234.08,170.36,234.08z"/>
	<path class="st0" d="M252.61,277.61l-0.49-8.38c-4.38,6.44-12.16,9.85-19.58,9.84c-14.22,0-24.7-11.91-24.7-27.71
		s10.46-27.72,24.7-27.71c7.42,0,15.2,3.43,19.58,9.85l0.49-8.38h12.79v52.51H252.61z M236.93,234.09
		c-8.27,0-14.95,6.44-14.96,17.26c-0.01,10.82,6.68,17.27,14.95,17.27s14.96-6.44,14.96-17.26
		C251.88,240.54,245.2,234.09,236.93,234.09L236.93,234.09z"/>
	<path class="st0" d="M314.71,277.62v-29.05c0-10.21-3.52-13.61-9.96-13.61c-6.69,0-13.98,6.07-13.98,13.37v29.3h-14.11V225.1h12.89
		l0.61,9.73c3.53-6.69,11.42-11.18,19.45-11.18c13.98,0,19.21,9.73,19.21,22.73v31.25L314.71,277.62z"/>
	<path class="st0" d="M380.51,277.63l-0.49-8.39c-4.38,6.44-12.16,9.85-19.57,9.85c-14.22,0-24.7-11.92-24.7-27.72
		s10.46-27.71,24.7-27.71c7.05,0,14.22,2.92,18.72,8.63V204.7h14.11v72.94H380.51z M364.83,234.11c-8.23,0-14.95,6.44-14.95,17.26
		c0,10.81,6.68,17.26,14.95,17.26c8.27,0,14.95-6.44,14.95-17.26S373.12,234.11,364.83,234.11z"/>
	<path class="st0" d="M446.26,277.64l-0.49-8.38c-4.38,6.44-12.16,9.84-19.58,9.84c-14.22,0-24.7-11.91-24.7-27.72
		c0-15.81,10.46-27.71,24.7-27.71c7.42,0,15.2,3.43,19.58,9.85l0.49-8.39h12.76v52.51L446.26,277.64z M430.58,234.12
		c-8.23,0-14.95,6.44-14.96,17.26c-0.01,10.82,6.69,17.24,14.95,17.24s14.96-6.44,14.96-17.26
		C445.54,240.54,438.85,234.12,430.58,234.12L430.58,234.12z"/>
	<path class="st0" d="M490.26,279.35c-7.42-0.06-14.68-2.12-21.03-5.96l2.31-9.72c4.25,2.55,10.7,5.84,18.48,5.84
		c5.59,0,9.48-1.7,9.48-6.08c0-3.77-4.01-5.1-11.18-6.81c-12.89-2.8-17.5-9.61-17.5-17.02c0-8.27,6.44-16.04,20.67-16.04
		c8.63,0,16.17,3.77,17.84,4.74l-2.31,9.24c-4.59-2.76-9.83-4.27-15.19-4.38c-5.71,0-8.51,1.94-8.51,5.1c0,3.52,3.65,5.1,9.24,6.44
		c13.86,2.92,19.45,9.36,19.45,16.41C512.03,272.42,503.76,279.35,490.26,279.35z"/>
	<rect x="26.55" y="189.32" class="st0" width="16.53" height="34.32"/>
	<rect x="26.55" y="259.82" class="st0" width="16.53" height="34.32"/>
	<rect x="26.55" y="233.66" class="st1" width="16.53" height="16.19"/>
	<rect x="0" y="217.54" class="st0" width="16.53" height="114.08"/>
	<rect x="52.55" y="288.13" class="st0" width="16.53" height="34.32"/>
	<rect x="52.55" y="217.58" class="st0" width="16.53" height="34.32"/>
	<rect x="52.55" y="261.92" class="st2" width="16.53" height="16.19"/>
	<rect x="78.55" y="180.38" class="st0" width="16.53" height="114.08"/>
</g>
</svg>
