<?xml version="1.0" encoding="utf-8"?>
<!-- Generator: Adobe Illustrator 24.3.0, SVG Export Plug-In . SVG Version: 6.00 Build 0)  -->
<svg version="1.1" id="Layer_1" xmlns="http://www.w3.org/2000/svg" xmlns:xlink="http://www.w3.org/1999/xlink" x="0px" y="0px"
	 viewBox="0 0 512 512" style="enable-background:new 0 0 512 512;" xml:space="preserve">
<style type="text/css">
	.st0{fill:#EA77FF;}
	.st1{fill:#261300;}
</style>
<g id="XMLID_19_">
	<rect id="XMLID_21_" class="st0" width="512" height="512"/>
	<rect id="XMLID_22_" x="22.58" y="22.58" class="st1" width="466.97" height="466.97"/>
	<path id="XMLID_26_" class="st0" d="M133.68,124.7c0-1.82,0.28-2.52,1.82-2.52c11.5-0.42,34.23-0.7,57.23-0.7
		c59.34,0,82.06,34.51,82.34,75.47c0,55.97-41.8,77.29-86.27,77.29c-8.42,0-16.69,0-18.8,0v79.96c0,2.1-0.56,2.81-2.1,2.81h-32.12
		c-1.54,0-2.1-0.7-2.1-2.52L133.68,124.7L133.68,124.7z M170.01,240.01c2.38,0.42,7.01,0.7,19.64,0.7
		c23.99,0,46.99-6.87,46.99-42.08c0-28.2-15.43-42.64-43.91-42.64c-11.78,0-20.34,0.42-22.72,0.7V240.01z"/>
	<path id="XMLID_27_" class="st0" d="M382.53,179.83c1.26,0,2.81,0,4.07,0.42c1.54,0.42,1.96,0.7,1.96,3.51v30.58
		c0,1.82-0.7,2.52-2.52,2.52c-18.1-0.7-26.65-1.26-39.56,4.07v132.56c0,2.1-0.7,2.81-2.52,2.81h-33.39c-1.96,0-2.52-0.7-2.52-2.81
		V234.82c0-15.43-0.7-27.21-1.54-38.86c-0.28-1.4,0.28-2.1,1.96-2.1C308.32,193.58,339.04,182.08,382.53,179.83z"/>
</g>
</svg>
