<?xml version="1.0" encoding="utf-8"?>
<!-- Generator: Adobe Illustrator 26.5.0, SVG Export Plug-In . SVG Version: 6.00 Build 0)  -->
<svg version="1.1" id="Layer_1" xmlns="http://www.w3.org/2000/svg" xmlns:xlink="http://www.w3.org/1999/xlink" x="0px" y="0px"
	 viewBox="0 0 512 512" style="enable-background:new 0 0 512 512;" xml:space="preserve">
<style type="text/css">
	.st0{fill:url(#SVGID_1_);}
	.st1{fill:url(#SVGID_00000044146469968241930410000013754725207756120496_);}
	.st2{fill:url(#SVGID_00000147183429751768398210000010834063940117509789_);}
	.st3{fill:url(#SVGID_00000141417037805112473120000014468174498432023983_);}
	.st4{fill:url(#SVGID_00000057135994329075383010000002458065768651653557_);}
	.st5{fill:#FFFFFF;}
</style>
<g id="XMLID_1_">
	
		<linearGradient id="SVGID_1_" gradientUnits="userSpaceOnUse" x1="5.7599" y1="506.1821" x2="7.76" y2="506.1821" gradientTransform="matrix(152.36 0 0 -160.0328 -694.7448 81203.3203)">
		<stop  offset="0" style="stop-color:#21D789"/>
		<stop  offset="1" style="stop-color:#07C3F2"/>
	</linearGradient>
	<polygon class="st0" points="359.24,80.8 508.77,204.8 454.35,314.35 364.85,289.67 286.44,289.67 	"/>
	
		<linearGradient id="SVGID_00000025429777930798881240000012136356813383950995_" gradientUnits="userSpaceOnUse" x1="5.3891" y1="506.1392" x2="7.3891" y2="506.1392" gradientTransform="matrix(313.7 -231.58 -189.0633 -384.245 93822.2109 196161.5625)">
		<stop  offset="0" style="stop-color:#FCF84A"/>
		<stop  offset="0.01" style="stop-color:#FCF84A"/>
		<stop  offset="0.11" style="stop-color:#A7EB62"/>
		<stop  offset="0.21" style="stop-color:#5FE077"/>
		<stop  offset="0.27" style="stop-color:#32DA84"/>
		<stop  offset="0.31" style="stop-color:#21D789"/>
		<stop  offset="0.58" style="stop-color:#21D789"/>
		<stop  offset="0.6" style="stop-color:#21D789"/>
		<stop  offset="0.69" style="stop-color:#20D68C"/>
		<stop  offset="0.76" style="stop-color:#1ED497"/>
		<stop  offset="0.83" style="stop-color:#19D1A9"/>
		<stop  offset="0.9" style="stop-color:#13CCC2"/>
		<stop  offset="0.97" style="stop-color:#0BC6E1"/>
		<stop  offset="1" style="stop-color:#07C3F2"/>
	</linearGradient>
	<polygon style="fill:url(#SVGID_00000025429777930798881240000012136356813383950995_);" points="208.03,161.6 179.27,314.35 
		176.75,367.24 103.24,398.38 0,409.6 31.14,78.41 219.25,0 334.41,76.03 	"/>
	
		<linearGradient id="SVGID_00000047061427620412327490000006234146270474454719_" gradientUnits="userSpaceOnUse" x1="4.8771" y1="506.3406" x2="6.8772" y2="506.3406" gradientTransform="matrix(52.32 -164.18 -104.2056 -82.4322 52576.5859 43107.3867)">
		<stop  offset="0" style="stop-color:#21D789"/>
		<stop  offset="0.16" style="stop-color:#24D788"/>
		<stop  offset="0.3" style="stop-color:#2FD886"/>
		<stop  offset="0.44" style="stop-color:#41DA82"/>
		<stop  offset="0.56" style="stop-color:#5ADC7D"/>
		<stop  offset="0.69" style="stop-color:#7AE077"/>
		<stop  offset="0.81" style="stop-color:#A1E36E"/>
		<stop  offset="0.93" style="stop-color:#CFE865"/>
		<stop  offset="1" style="stop-color:#F1EB5E"/>
	</linearGradient>
	<polygon style="fill:url(#SVGID_00000047061427620412327490000006234146270474454719_);" points="208.03,161.6 222.33,456.73 
		175.2,512 0,409.6 144.06,194.42 	"/>
	
		<linearGradient id="SVGID_00000038407243080190652840000007835874087216356533_" gradientUnits="userSpaceOnUse" x1="5.8812" y1="506.056" x2="7.8812" y2="506.056" gradientTransform="matrix(113.86 -153.08 -194.1929 -89.7545 97809.6953 46603.543)">
		<stop  offset="0" style="stop-color:#21D789"/>
		<stop  offset="0.06" style="stop-color:#24D788"/>
		<stop  offset="0.11" style="stop-color:#2FD886"/>
		<stop  offset="0.16" style="stop-color:#41DA82"/>
		<stop  offset="0.21" style="stop-color:#5ADD7D"/>
		<stop  offset="0.25" style="stop-color:#79E077"/>
		<stop  offset="0.26" style="stop-color:#7CE076"/>
		<stop  offset="0.5" style="stop-color:#8CE173"/>
		<stop  offset="0.92" style="stop-color:#B2E56B"/>
		<stop  offset="1" style="stop-color:#B2E56B"/>
	</linearGradient>
	<polygon style="fill:url(#SVGID_00000038407243080190652840000007835874087216356533_);" points="401.6,139.99 224.02,139.99 
		380.84,0 	"/>
	
		<linearGradient id="SVGID_00000132080517705891429470000005542296534434598293_" gradientUnits="userSpaceOnUse" x1="5.3477" y1="506.1292" x2="7.3478" y2="506.1292" gradientTransform="matrix(-229.42 -2.14 -2.0328 241.5213 2810.8281 -121908.0781)">
		<stop  offset="0" style="stop-color:#FCF84A"/>
		<stop  offset="0.39" style="stop-color:#FCF84A"/>
		<stop  offset="0.54" style="stop-color:#ECF451"/>
		<stop  offset="0.83" style="stop-color:#C2E964"/>
		<stop  offset="0.92" style="stop-color:#B2E56B"/>
		<stop  offset="1" style="stop-color:#B2E56B"/>
	</linearGradient>
	<polygon style="fill:url(#SVGID_00000132080517705891429470000005542296534434598293_);" points="512,457.57 356.02,511.16 
		147.99,452.8 208.03,161.6 232.01,139.99 359.24,128.07 347.18,255.16 448.04,216.02 	"/>
	<rect id="XMLID_2_" x="95.95" y="95.95" width="319.96" height="319.96"/>
	<path id="XMLID_3_" class="st5" d="M126.39,356.02h119.93v20.06H126.39V356.02z M125.55,137.61h54.43
		c31.98,0,50.36,18.38,50.36,45.59c0,30.44-23.99,46.43-53.58,46.43H154.3v39.98h-28.76V137.61z M200.73,184.74
		c0-12.76-8.84-20.06-23.99-20.06H154.3v40.82h23.15C193.3,205.64,200.73,195.96,200.73,184.74z M241.55,204.8
		c-0.42-18.38,6.73-36.05,19.64-49.1c13.05-13.05,30.72-20.06,49.1-19.64c24.83,0,39.98,8,52.04,20.76l-18.38,21.6
		c-10.38-9.54-20.76-15.15-33.67-15.15c-22.44,0-38.44,18.38-38.44,41.66c0,22.44,15.99,41.66,38.44,41.66
		c15.15,0,24.83-6.45,35.21-15.15l18.38,18.38c-13.61,14.45-28.76,23.99-54.43,23.99c-18.24,0-35.63-7.29-48.39-20.2
		C248.43,240.43,241.41,223.04,241.55,204.8z"/>
</g>
</svg>
