<?xml version="1.0" encoding="utf-8"?>
<!-- Generator: Adobe Illustrator 21.0.0, SVG Export Plug-In . SVG Version: 6.00 Build 0)  -->
<svg version="1.1" id="Layer_1" xmlns="http://www.w3.org/2000/svg" xmlns:xlink="http://www.w3.org/1999/xlink" x="0px" y="0px"
	 viewBox="0 0 512 512" style="enable-background:new 0 0 512 512;" xml:space="preserve">
<g>
	<path d="M267,0C143.7,0,64,66.4,64,169.3c0,101.8,91.5,132.2,152,152.3c27.2,9,61.1,20.2,61.3,31.3c-0.2,8.6-20.4,9.9-32.5,9.9
		c-40.2,0-101.9-16.6-150-40.5L64,307v166.3l13,5.5c50.1,21,108.7,33.1,160.9,33.3c131.5,0,210-60.6,210-162.1
		c0-110.8-94-140.9-156.3-160.8c-22.7-7.3-57.1-18.3-57.1-27.5c0-4.9,0-12.3,26.2-12.3c39.4,0,94.3,16.3,133.5,39.7l32.3,19.3V33
		l-13.6-5.3C367.1,9.8,315.2,0,267,0z M267,42.7c38.4,0,79.4,7,117,19.8v73.2c-40.2-17.9-86.3-29-123.1-29
		c-62.2,0-68.9,38.4-68.9,54.9c0,40.3,42.1,53.9,86.8,68.1c74.1,23.7,126.6,46.2,126.6,120.2c0,107.8-117.1,119.5-167.3,119.5
		c-42.3-0.1-89.4-9-131.3-24.7v-70.5c42.5,17,95.3,31.2,138.2,31.2c65.2,0,75.1-32.7,75.2-52.4v-0.1v-0.1
		c-0.2-41.7-44.1-56.3-90.5-71.7c-71.9-23.9-122.8-45.8-122.8-111.8C106.7,91.1,168.1,42.7,267,42.7z"/>
</g>
</svg>
